<svg preserveAspectRatio="none" overflow="visible" style="display: block;" width="30" height="30" viewBox="0 0 30 30" fill="none" xmlns="http://www.w3.org/2000/svg">
<g id="bread-04">
<path id="Vector" d="M10.6248 4.99998C6.30373 4.99998 2.49985 6.99149 2.49985 9.44814C2.49985 11.1538 4.55322 12.4231 4.29157 14.0257L3.98633 19.7222C3.85368 22.198 3.78736 23.4359 4.4997 24.218C5.21203 25 6.40592 25 8.79372 25H12.456C14.8437 25 16.0377 25 16.75 24.218C17.4623 23.4359 17.396 22.198 17.2633 19.7222L16.9581 14.0257C16.6965 12.4231 18.7498 11.1538 18.7498 9.44814C18.7498 6.99149 14.946 4.99998 10.6248 4.99998Z" fill="#848484" stroke="#848484" stroke-width="1.875"/>
<path id="Vector_2" d="M13.7498 25H21.4796C23.7636 25 24.9056 25 25.587 24.218C26.2683 23.4359 26.2048 22.198 26.078 19.7222L25.7861 14.0257C25.5357 12.4231 27.4998 11.1538 27.4998 9.44814C27.4998 6.99149 23.8613 4.99998 19.7281 4.99998H9.99985" stroke="#848484" stroke-width="1.875"/>
</g>
</svg>
